<svg id="Layer_1" data-name="Layer 1" xmlns="http://www.w3.org/2000/svg" viewBox="0 0 100 100"><defs><style>.cls-1{fill:#fff;}.cls-2{fill:#f15a24;}</style></defs><title>logo-icon</title><path class="cls-1" d="M-130.15-3.34v100h100v-100Zm69.58,75.52a21.35,21.35,0,0,1-10.86,3.48H-95.57a6.77,6.77,0,0,1-6.5-7,6.76,6.76,0,0,1,6.5-6.49h25.94a4.44,4.44,0,0,0,4.33-4.49,3.87,3.87,0,0,0-.41-1.74c-1.11-2.2-3.86-2.48-4.13-2.5h-31.31a6.77,6.77,0,0,1-6.5-7,6.76,6.76,0,0,1,6.5-6.49h28.69c11.06,0,20,8,20,17.89A17.27,17.27,0,0,1-60.57,72.18Zm-41.68-47.77a6.75,6.75,0,0,1,6.75-6.75h29.1a6.76,6.76,0,0,1,6.76,6.75,6.76,6.76,0,0,1-2,4.78,6.76,6.76,0,0,1-4.78,2H-95.5A6.76,6.76,0,0,1-102.25,24.41Z" transform="translate(130.15 3.34)"/><path class="cls-2" d="M-72.46,39.91h-28.69a6.76,6.76,0,0,0-6.5,6.49,6.77,6.77,0,0,0,6.5,7h31.31c.27,0,3,.3,4.13,2.5a3.87,3.87,0,0,1,.41,1.74,4.44,4.44,0,0,1-4.33,4.49H-95.57a6.76,6.76,0,0,0-6.5,6.49,6.77,6.77,0,0,0,6.5,7h24.14a21.35,21.35,0,0,0,10.86-3.48A17.27,17.27,0,0,0-52.46,57.8C-52.46,47.91-61.4,39.91-72.46,39.91Z" transform="translate(130.15 3.34)"/><path class="cls-2" d="M-95.5,31.17h29.1a6.76,6.76,0,0,0,4.78-2,6.76,6.76,0,0,0,2-4.78,6.76,6.76,0,0,0-6.76-6.75H-95.5a6.75,6.75,0,0,0-6.75,6.75A6.76,6.76,0,0,0-95.5,31.17Z" transform="translate(130.15 3.34)"/></svg>