<svg id="Layer_1" data-name="Layer 1" xmlns="http://www.w3.org/2000/svg" viewBox="0 0 100 100"><defs><style>.cls-1{fill:#f15a24;}.cls-2{fill:#fffff2;}</style></defs><title>logo-icon-orange</title><path class="cls-1" d="M0,0V100H100V0ZM69.58,75.52A21.35,21.35,0,0,1,58.72,79H34.58a6.76,6.76,0,0,1,0-13.51H60.52A4.44,4.44,0,0,0,64.85,61a3.87,3.87,0,0,0-.41-1.74c-1.11-2.2-3.86-2.48-4.13-2.5H29a6.76,6.76,0,0,1,0-13.51H57.69c11.06,0,20,8,20,17.89A17.27,17.27,0,0,1,69.58,75.52ZM27.9,27.75A6.75,6.75,0,0,1,34.65,21h29.1a6.76,6.76,0,1,1,0,13.51H34.65A6.76,6.76,0,0,1,27.9,27.75Z"/><path class="cls-2" d="M57.69,43.25H29a6.76,6.76,0,0,0,0,13.51H60.31c.27,0,3,.3,4.13,2.5A3.87,3.87,0,0,1,64.85,61a4.44,4.44,0,0,1-4.33,4.49H34.58a6.76,6.76,0,0,0,0,13.51H58.72a21.35,21.35,0,0,0,10.86-3.48,17.27,17.27,0,0,0,8.11-14.38C77.69,51.25,68.75,43.25,57.69,43.25Z"/><path class="cls-2" d="M34.65,34.51h29.1a6.76,6.76,0,1,0,0-13.51H34.65a6.76,6.76,0,0,0,0,13.51Z"/></svg>