<svg id="Layer_1" data-name="Layer 1" xmlns="http://www.w3.org/2000/svg" viewBox="0 0 1390 166.02"><defs><style>.cls-1{fill:#eeeef2;}</style></defs><title>stretched_typograpgy</title><path class="cls-1" d="M1129.19,613c-10.24,0-18.08,7.53-18.67,18.34-.36,6.44,0,12.92-.15,19.38-.22,7.66,2,17.47-1.94,22.3-3.1,3.85-13.75,1.69-21.06,2.05-11.34.55-19.25,8-19.51,18.66-.27,11,7.8,19,19.74,19.33,7.06.19,14.14,0,22.84,0,0,15.4-.25,29.22.07,43,.28,11.49,8.14,19.05,18.91,19,10.29,0,18.69-7.43,18.76-18.18q.43-63,0-125.94c-.1-10.78-8.61-18-18.94-18" transform="translate(-81 -612.99)"/><path class="cls-1" d="M1022.91,613c-11.49.06-18.47,7.93-18.53,21.23-.09,19.7,0,39.39,0,59.08,0,20,0,40,0,60.05,0,13.62,6.55,21.49,17.89,21.81,11.75.33,19.83-7.93,19.88-21.17q.22-60,0-120.09c0-12.59-8-21-19.23-20.91" transform="translate(-81 -612.99)"/><path class="cls-1" d="M667.83,613H566.91a18.89,18.89,0,1,0,0,37.78H667.83a18.89,18.89,0,0,0,0-37.78" transform="translate(-81 -612.99)"/><path class="cls-1" d="M667.83,737.36H566.91a18.9,18.9,0,1,0,0,37.79H667.83a18.9,18.9,0,0,0,0-37.79" transform="translate(-81 -612.99)"/><path class="cls-1" d="M566.91,713h73.81a18.89,18.89,0,0,0,0-37.78H566.91a18.89,18.89,0,1,0,0,37.78" transform="translate(-81 -612.99)"/><path class="cls-1" d="M1282.53,613H1181.6a18.89,18.89,0,1,0,0,37.78h100.93a18.89,18.89,0,1,0,0-37.78" transform="translate(-81 -612.99)"/><path class="cls-1" d="M1282.53,737.36H1181.6a18.9,18.9,0,0,0,0,37.79h100.93a18.9,18.9,0,0,0,0-37.79" transform="translate(-81 -612.99)"/><path class="cls-1" d="M1181.6,713h73.82a18.89,18.89,0,0,0,0-37.78H1181.6a18.89,18.89,0,1,0,0,37.78" transform="translate(-81 -612.99)"/><path class="cls-1" d="M357,613H246.4a18.89,18.89,0,0,0,0,37.78H357A18.89,18.89,0,0,0,357,613" transform="translate(-81 -612.99)"/><path class="cls-1" d="M302.14,675.24h0a18.89,18.89,0,0,0-18.89,18.89v62.26a18.9,18.9,0,0,0,37.79,0V694.13a18.9,18.9,0,0,0-18.9-18.89" transform="translate(-81 -612.99)"/><path class="cls-1" d="M535,672.22a58.78,58.78,0,0,0-18.44-42.81c-8.37-7.68-16.87-10.7-22.26-12.54A71.83,71.83,0,0,0,470.68,613H406.39a18.9,18.9,0,0,0,0,37.79h19.07s0,0,0,0H472.6c.39,0,.75,0,1.14,0s.75,0,1.16,0a22.18,22.18,0,0,1,21,22.12c0,12-12.58,21.5-22.14,22.11-6.18.39-15.11-2.68-20.35.15a22,22,0,0,0-4.51,3.35,19.09,19.09,0,0,0,0,26.89L497,773.44a19,19,0,0,0,26.87-26.87L502.25,725A58.91,58.91,0,0,0,535,672.22" transform="translate(-81 -612.99)"/><path class="cls-1" d="M829.26,613H718.66a18.89,18.89,0,1,0,0,37.78h110.6a18.89,18.89,0,0,0,0-37.78" transform="translate(-81 -612.99)"/><path class="cls-1" d="M774.39,675.24a18.89,18.89,0,0,0-18.89,18.89v62.26a18.9,18.9,0,0,0,37.79,0V694.13a18.9,18.9,0,0,0-18.9-18.89" transform="translate(-81 -612.99)"/><path class="cls-1" d="M115.64,650.78H197A18.9,18.9,0,1,0,197,613h-81.4a18.9,18.9,0,1,0,0,37.79" transform="translate(-81 -612.99)"/><path class="cls-1" d="M180.09,675.24c-.65,0-1.3,0-1.93,0H100.6c-10.5,0-19.7,8.58-19.6,19.08a18.88,18.88,0,0,0,18.89,18.71h81.42l6.1,0c.77.06,8.45.83,11.55,7a10.73,10.73,0,0,1,1.15,4.86A12.39,12.39,0,0,1,188,737.48a3.1,3.1,0,0,1-.43,0,3.17,3.17,0,0,1-.43,0h-71c-10.58,0-19.64,8.37-19.62,18.94a18.9,18.9,0,0,0,18.88,18.86H183a59.91,59.91,0,0,0,30.38-9.73c13.83-9.1,22.79-23.74,22.79-40.25,0-27.64-25.1-50.06-56-50.06" transform="translate(-81 -612.99)"/><path class="cls-1" d="M988.66,731.86a19.46,19.46,0,0,0-3.27-5.53,23.33,23.33,0,0,0-2.27-2.37c-.08-.07-.16-.15-.24-.21A18.67,18.67,0,0,0,971,719.53a18.87,18.87,0,0,0-6.46,1.14,8.56,8.56,0,0,0-.86.34,13.18,13.18,0,0,0-1.21.55,29.41,29.41,0,0,0-5.41,3.51,7.13,7.13,0,0,1-.63.49l0,0a43.15,43.15,0,0,1-29.73,11.8c-.3,0-.61,0-.91,0h-.22a38.37,38.37,0,0,1-17.67-4.24,10.85,10.85,0,0,1-1.3-.7.33.33,0,0,0-.13,0,2.7,2.7,0,0,1-.52-.3,43.25,43.25,0,0,1-20.84-25.79.1.1,0,0,1,0-.08s0,0,0,0,0,0,0-.07a5.24,5.24,0,0,0-.27-.65c-3-7.16-7.92-11.77-13.66-13.28A6.23,6.23,0,0,0,870,692a4.86,4.86,0,0,0-.55-.1,7.4,7.4,0,0,0-.93-.12l-.67-.07c-.29,0-.57,0-.86,0h-.4c-.2,0-.41,0-.61,0a19.53,19.53,0,0,0-5.93,1.24c-7.72,2.89-12.17,9.77-12.25,18.06a18.4,18.4,0,0,0,.55,4.08,1.47,1.47,0,0,0,.08.28c.06.23.12.47.2.7a81.07,81.07,0,0,0,78,59.07c1.4,0,2.78,0,4.17-.1l.66,0a102,102,0,0,0,12.8-1.79l.79-.16a2,2,0,0,0,.31-.08,80.85,80.85,0,0,0,35.33-18.5s0,0,.07,0q2.82-2.54,5.42-5.34a20.25,20.25,0,0,0,3.45-8.9c0-.34.06-.69.08-1s0-.51,0-.78a19,19,0,0,0-.81-5.52c-.1-.32-.22-.63-.33-.93" transform="translate(-81 -612.99)"/><path class="cls-1" d="M989.42,646.84c0-.24-.11-.44-.15-.67a21,21,0,0,0-2.68-6,25.61,25.61,0,0,0-3-3.86.35.35,0,0,0-.08-.1c-1.22-1.18-2.48-2.36-3.76-3.47l-1.5-1.26-1.87-1.5-1.2-.9c-.61-.46-1.24-.91-1.89-1.38-.43-.28-.85-.59-1.28-.87s-1.07-.73-1.62-1.08l-1.67-1c-.91-.55-1.85-1.1-2.78-1.61s-2.07-1.11-3.15-1.64c-11.11-5.45-23.88-8.29-39.46-8.43a80.73,80.73,0,0,0-44.62,15.66c-.18.14-.36.26-.53.38a95.45,95.45,0,0,0-7.25,6.28,28.4,28.4,0,0,0-3.06,3.47l-.27.33a22.27,22.27,0,0,0-3.31,6.51c-.08.33-.18.66-.24,1a4.94,4.94,0,0,0-.14.71,5.3,5.3,0,0,0-.1.55,5.94,5.94,0,0,0-.13.93c0,.33-.06.65-.08,1s0,.55,0,.81v.16a18.3,18.3,0,0,0,5.06,12c7.07,7.85,17.18,8.4,26.44,1.56.77-.83,1.59-1.65,2.44-2.42a43.32,43.32,0,0,1,58.69.37c.61.55,1.2,1.12,1.77,1.72,9.83,7.25,20,6.73,27.13-1.5a18.82,18.82,0,0,0,4.41-8.81,12.2,12.2,0,0,0,.18-1.48.65.65,0,0,0,0-.19,4.17,4.17,0,0,0,0-.87,4.35,4.35,0,0,0,0-.51c0-.32,0-.65,0-1a21.58,21.58,0,0,0-.36-2.81" transform="translate(-81 -612.99)"/><path class="cls-1" d="M1334.81,680.72a18.89,18.89,0,0,0-18.89,18.89v60a18.89,18.89,0,1,0,37.78,0v-60a18.89,18.89,0,0,0-18.89-18.89" transform="translate(-81 -612.99)"/><path class="cls-1" d="M1461,656.47c-21.38-37.35-68.45-42.45-75.8-43.12-2.52-.22-4.63-.32-6.09-.36h-44.25a18.9,18.9,0,0,0,0,37.79h50.83c26.83-.26,48.1,21.36,48,45.58-.14,28.45-29.8,43.38-39.54,44.59-1,.13-2,.21-3,.29a18.76,18.76,0,0,0,2.93,37.25c1.26-.09,2.49-.19,3.73-.35,4.15-.49,73-20.88,73.24-81.78a79.35,79.35,0,0,0-10-39.89" transform="translate(-81 -612.99)"/></svg>