<svg xmlns="http://www.w3.org/2000/svg" viewBox="0 0 233.19 296.74"><defs><style>.cls-1,.cls-7{fill:#6793fd;}.cls-2{fill:#4e7cd8;}.cls-3{fill:#020000;}.cls-4{fill:none;stroke:#000;stroke-width:0.96px;opacity:0.42;}.cls-4,.cls-7{stroke-miterlimit:10;}.cls-5{fill:#f9f7f7;}.cls-6{fill:#fffdfd;}.cls-7{stroke:#020000;stroke-width:3px;}</style></defs><g id="Layer_2" data-name="Layer 2"><g id="Layer_1-2" data-name="Layer 1"><g id="سعيد"><path class="cls-1" d="M175,114.6s-2.29-3.52-4.59-1.61-2.67,2.8,0,6.24,13.74,23.59-1.86,39c-14.3,14.13-31.34,20.67-59.9,13.71a49.41,49.41,0,0,1-24.47-14.05C74.35,147.36,64.57,128.6,69.6,97.18c8.2-51.24,45.89-59.36,53.85-60.51.91-.13,1.82-.26,2.73-.41,7.88-1.32,50.78-5.93,70.65,45.37,21.93,56.6-7.39,127.48-7.39,127.48S168.28,263.68,103,251.44c0,0-22.18-4.34-39.26-21.42C53.9,220.18,50,216.77,48.42,215.65a6,6,0,0,1-2.12-2.82c-1-2.87-1.77-7.6,3.42-10a7.3,7.3,0,0,1,4.72-.42c8.92,2.14,47,10.35,74.06,2.07C159.35,195.09,169,182.6,169,182.6S198.11,151.4,175,114.6Z"/><path class="cls-1" d="M164.66.29c-.9.27-1.8.53-2.71.71l-69,14.21s-10.6,1-10.66,13.07a1.63,1.63,0,0,0,2,1.57l75.11-15.79s5.58-.47,7.75-8.17c.21-.73.45-1.45.69-2.17C168.34,2.05,168.84-.94,164.66.29Z"/><path d="M69.65,120.26A9.12,9.12,0,0,1,69,126C60.66,144.21,55.7,148,53.45,149.25a15.64,15.64,0,0,1-5.91,1.89c-7.87.79-13.83-4.49-15.54-6,0,0-18.52-21.92-16.48-31.87.46-2.27,15.36,1.23,15.36,1.23,5.41,16.79,13.79,19.12,13.79,19.12,1.94.75,4.21-1.4,6.12-4.14a27.56,27.56,0,0,0,4.12-9.26c1.32-5.33,5.15-16.63,13.66-14.56C68.57,105.64,68.73,115.92,69.65,120.26Z"/><path d="M203.72,109.15,205,125.88a2.13,2.13,0,0,0,1.35,2c3.87,1.54,11.31,4.48,10,8-1.16,3-1.83,3.26-2.13,3.13a3.71,3.71,0,0,0-.87-.29c-2-.29-7.73-.58-8.58,5.38a5.17,5.17,0,0,0,.37,2.54c.19.55.06,1.29-1.63,1.76-2.92.81-11.25,11.65-2.91,23a5.41,5.41,0,0,0,.92,1c1.09.93,3.63,3.24,3.63,4.53s4.31,5.19,7.18,4.48a2.71,2.71,0,0,1,2.41.51c2.13,1.81,7,4.4,13.69-1.53a13.32,13.32,0,0,0,4.66-9.61c.06-3.15-1-6.61-5.54-7.85a2.75,2.75,0,0,1-2.42-1.52,1.46,1.46,0,0,1,.9-2c1.81-.53,4.86-2.49,1.66-9.69a1.06,1.06,0,0,1,.16-1.14,21.73,21.73,0,0,0,5.25-10.9,17.19,17.19,0,0,0-5.23-14.76c-3.27-3.14-9.82-7.71-23.67-14A.28.28,0,0,0,203.72,109.15Z"/><path class="cls-1" d="M208,147.47a14.7,14.7,0,0,1,2.84.92.52.52,0,0,1-.13,1c-3.92.72-16.69,4.22-8,18.28,0,0,1.32.17.82-1.65,0,0-1.34-4.77,2.21-1.81,0,0-2.21,8.73,3.69,11.86a.38.38,0,0,0,.55-.4c-.31-1.75-1-6.1-.19-7.67,1-2,2.8,0,2.8,0s-.82,9.22,5.43,11.53,10.38-4.78,10.38-4.78,3.29-6.26,0-7.74-4.45.17-4.28,3.63.49,4.94-1.48,3.45c0,0-1-1.88-4.82-3.21a.33.33,0,0,1-.06-.61c2.13-1.19,7.79-5.47,1.63-14.91a.37.37,0,0,1,.49-.53,13.51,13.51,0,0,1,2.76,2c2.14,2,2.8-2.31,2.8-2.31s-.29-6.75-10.44-11.52c0,0-6.15-3.85-7.92,3A1.22,1.22,0,0,0,208,147.47Z"/><path d="M83.85,273.83a.37.37,0,0,0,.28-.61c-1.67-1.88-5.53-7.67,5.74-11.49,13.62-4.62,20.12,6,20.12,6s3.07,4.3.29,7.28a1.05,1.05,0,0,0,0,1.4c1.2,1.38,3.26,4.56.93,8.22a8.14,8.14,0,0,1-5.29,3.54c-1.75.35-4.52,1-8.24,1.95a53.45,53.45,0,0,0-11,4.26,8.29,8.29,0,0,1-1.26.55c-2.93,1-13.69,4.09-19.39-1.45-6.64-6.46-1.87-12.36-1.87-12.36S67.66,273.87,83.85,273.83Z"/><path d="M153.77,243.93a21.59,21.59,0,0,1-6.86,3.88,1.07,1.07,0,0,0-.66,1.41,92.66,92.66,0,0,1,3.87,17.25c.09.86.15,1.73.17,2.59a2,2,0,0,0,1.51,1.87c3,.77,9.48,2.07,9.66-1.18.21-4-2.22-21.63-6.38-25.77A1,1,0,0,0,153.77,243.93Z"/><path d="M99.09,247.31c1,.89,4.64,2.09,8.06,3.26a1.08,1.08,0,0,1,.67,1.41,60.35,60.35,0,0,0-3.66,14.49c-.09.86-.15,1.73-.18,2.59a2,2,0,0,1-1.5,1.87c-3,.77-9.49,2.07-9.66-1.18-.22-4,.81-18.25,5-22.39A1,1,0,0,1,99.09,247.31Z"/><path d="M170.42,273.83a.37.37,0,0,1-.27-.61c1.66-1.88,5.53-7.67-5.74-11.49-13.62-4.62-20.12,6-20.12,6s-3.07,4.3-.3,7.28a1.05,1.05,0,0,1,0,1.4c-1.2,1.38-3.26,4.56-.93,8.22a8.09,8.09,0,0,0,5.29,3.54c1.75.35,4.52,1,8.24,1.95a53.28,53.28,0,0,1,11,4.26,8.4,8.4,0,0,0,1.27.55c2.93,1,13.68,4.09,19.38-1.45,6.64-6.46,1.88-12.36,1.88-12.36S186.62,273.87,170.42,273.83Z"/><path class="cls-1" d="M150.54,276.32c-2-.82-6.64-3.32-2.63-7.84a11,11,0,0,1,4.46-3c3.34-1.22,9.76-2.72,15.14,1,6.75,4.63-5.57,10.42-8.53,11.71a.42.42,0,0,0,.19.8,7.61,7.61,0,0,0,1.91-.53c3.1-1.21,17.55-5.3,24.58,2,3.87,4,2.73,7.36.92,9.54a10,10,0,0,1-7.66,3.5,24.86,24.86,0,0,1-11.63-3.21c-7.85-4.1-9.91-4.56-10.43-4.57a3,3,0,0,1-.6-.05c-1.32-.26-5.34-1.16-7.28-2.79-2.35-2-3.18-3.78-2.65-5.45.38-1.21,2.65-.14,4-.16A.51.51,0,0,0,150.54,276.32Z"/><path class="cls-1" d="M90.34,286.63c17.34-6.62,12.75-8,12.75-8s-6.63-1-2-2.74,0-5.61,0-5.61c-.71-3.18-.39-4.58.44-4.95-3.43-1.19-9.55-2.44-14.72,1.11-6.75,4.63,5.56,10.42,8.53,11.71a.42.42,0,0,1-.19.8,7.5,7.5,0,0,1-1.91-.53c-3.1-1.21-17.55-5.3-24.59,2-2.87,3-3,5.61-2.1,7.64C66.51,288.13,73,293.24,90.34,286.63Z"/><path class="cls-1" d="M74.75,293.49a6,6,0,0,0,.61,0,18.6,18.6,0,0,0,3.62-.34A24.71,24.71,0,0,1,74.75,293.49Z"/><path class="cls-2" d="M67.7,290a7.71,7.71,0,0,1-1.19-1.9h0s.27,5.16,8.24,5.36A9.92,9.92,0,0,1,67.7,290Z"/><path class="cls-2" d="M97.42,285.75a2.88,2.88,0,0,0,.59-.05c1.32-.26,5.35-1.16,7.29-2.79,2.35-2,3.18-3.78,2.65-5.45-.39-1.21-2.66-.14-4-.16a.51.51,0,0,1-.17-1c2-.82,6.63-3.32,2.62-7.84a10.84,10.84,0,0,0-4.46-3l-.41-.14c-.83.37-1.15,1.77-.44,4.95,0,0,4.59,3.91,0,5.61s2,2.74,2,2.74,4.59,1.35-12.75,8-23.83,1.5-23.83,1.5A7.71,7.71,0,0,0,67.7,290a9.92,9.92,0,0,0,7,3.46,24.71,24.71,0,0,0,4.23-.3,28.25,28.25,0,0,0,8-2.87C94.84,286.22,96.89,285.76,97.42,285.75Z"/><path class="cls-2" d="M156.8,285.75a2.92,2.92,0,0,1-.6-.05c-1.32-.26-5.35-1.16-7.29-2.79-2.34-2-3.18-3.78-2.65-5.45.39-1.21,2.66-.14,4-.16a.51.51,0,0,0,.17-1c-2-.82-6.63-3.32-2.62-7.84a10.84,10.84,0,0,1,4.46-3l.41-.14c.83.37,1.15,1.77.44,4.95,0,0-4.59,3.91,0,5.61s-2,2.74-2,2.74-4.58,1.35,12.75,8,23.83,1.5,23.83,1.5a7.71,7.71,0,0,1-1.19,1.9,9.92,9.92,0,0,1-7,3.46,24.71,24.71,0,0,1-4.23-.3,28.25,28.25,0,0,1-8-2.87C159.37,286.22,157.32,285.76,156.8,285.75Z"/><path class="cls-3" d="M153.72,61.64c-2.3-1.93-12-9.6-19.23-8.7a.57.57,0,0,1-.61-.78,7.79,7.79,0,0,1,2-3.12c1.41-1.08,6.86-1.23,16,4.61,7.29,4.64,4.48,7.23,3,8.1A1,1,0,0,1,153.72,61.64Z"/><path class="cls-3" d="M102.1,61.38c2.36-1.85,11.78-8.8,18.92-8.1A1,1,0,0,0,122,52a6.6,6.6,0,0,0-1.62-2.57c-1.37-1.12-6.81-1.45-16.18,4.08-7.39,4.36-4.76,7-3.32,8A1.07,1.07,0,0,0,102.1,61.38Z"/><path class="cls-4" d="M133.89,76.29a9.58,9.58,0,0,1,2.4-4.74c2.65-2.94,8.77-7.84,17.37-3.51,11.73,5.92,8.23,22.37,8.23,22.37S131.53,89.73,133.89,76.29Z"/><ellipse class="cls-5" cx="146.5" cy="88.61" rx="15.88" ry="19.74"/><path d="M108.43,127c7.14,7.17,19.33,15.35,28.6,7.27,4.75-3.77,8.16-11.68,11.19-16.9l-1.82,9.31a32.75,32.75,0,0,1-6.76,14.39c-5.95,7.84-18.35,7-22.3-2.14,3.55,5.72,11.52,7.6,17,3.83,5.05-3.88,7.83-10.47,9.15-16.56l2.77,1c-3.52,6.93-10.46,14.06-19,12.88-8-1.1-14.29-6.81-18.83-13Z"/><ellipse class="cls-3" cx="146.27" cy="88.38" rx="8.2" ry="10.34"/><ellipse class="cls-6" cx="146.66" cy="87.64" rx="2.84" ry="3.44"/><path class="cls-4" d="M122,76.29a9.59,9.59,0,0,0-2.41-4.74c-2.65-2.94-8.76-7.84-17.36-3.51C90.44,74,94,90.41,94,90.41S124.3,89.73,122,76.29Z"/><ellipse class="cls-5" cx="109.34" cy="88.61" rx="15.88" ry="19.74"/><ellipse class="cls-3" cx="109.57" cy="88.38" rx="8.2" ry="10.34"/><ellipse class="cls-6" cx="109.17" cy="87.64" rx="2.84" ry="3.44"/><path class="cls-7" d="M32,77.19s-.76,8.08-4.37,7.54c-3.15-.48-.79-7.82-.15-9.65a4.88,4.88,0,0,0,.25-1c.24-1.64.68-6.32-1.5-9.26a4.92,4.92,0,0,0-8.79,2.51,12.53,12.53,0,0,0,0,2.86,34.25,34.25,0,0,0,1.38,7.14,10.14,10.14,0,0,1,.6,3.81c-.08,1.54-.54,3.19-2.08,3.61-2.46.68-3.93-5.4-4.42-7.87a5.67,5.67,0,0,0-1-2.21c-1.32-1.81-4.19-4.86-7.75-3.28a4.39,4.39,0,0,0-2.69,4.68,7.43,7.43,0,0,0,2.46,5c2.64,2.41,8,7.75,7.34,10.89-.81,3.83.07,15,4.26,17a.74.74,0,0,1,.16,1.22l-3.11,2.72c-.66.55-.66,3.93,6.56,4.81,6.67.81,13.06-.91,12.94-4.54a2.8,2.8,0,0,0-.38-1.25,1.79,1.79,0,0,1,.39-2.19,10.36,10.36,0,0,0,6.5-3.5c2.11-2.55,7.25-1.42,9.19-.88a8,8,0,0,0,3.15.26c2.14-.29,4.78-1.61,3.62-6.59,0,0-1-4.16-8.52-2.73s-8-2.08-8-2.08a7.37,7.37,0,0,1,.54-7.87,64.49,64.49,0,0,0,4-7.12,14.78,14.78,0,0,0,1.45-8.32c-.2-1.65-.71-3.2-1.83-3.8l-.09,0a6.39,6.39,0,0,0-8.61,2.65A15.84,15.84,0,0,0,32,77.19Z"/><path class="cls-3" d="M29.9,92.05c-4,1.35-6.77,4.55-8.69,8.15-.27.52-.52,1.06-.82,1.58.12-.59.27-1.17.44-1.75,1.29-4,4.71-7.73,9.07-8Z"/><path class="cls-3" d="M20.39,92.05a5.55,5.55,0,0,1,3.25,3.25c0,.22.08.56-.14.71,0-.23-.12-.37-.24-.53a15.86,15.86,0,0,1-2.87-3.43Z"/><path class="cls-3" d="M23.56,104.31c2.87,2.54,6.12,5.06,10.16,4.16-3.62,2.87-8.8-.32-10.16-4.16Z"/><path class="cls-3" d="M14.32,108c1.91.66,5,.84,6.07-1.29.06,3-4.62,3.26-6.07,1.29Z"/><path class="cls-3" d="M31.75,112c-3.64,2-8.86,3.34-12.46.65,4.11,1.51,8.32.15,12.46-.65Z"/></g></g></g></svg>