<?xml version="1.0" standalone="no"?>
<!DOCTYPE svg PUBLIC "-//W3C//DTD SVG 20010904//EN"
 "http://www.w3.org/TR/2001/REC-SVG-20010904/DTD/svg10.dtd">
<svg version="1.0" xmlns="http://www.w3.org/2000/svg"
 width="700.000000pt" height="700.000000pt" viewBox="0 0 700.000000 700.000000"
 preserveAspectRatio="xMidYMid meet">
<metadata>
Created by potrace 1.14, written by Peter Selinger 2001-2017
</metadata>
<g transform="translate(0.000000,700.000000) scale(0.100000,-0.100000)"
fill="#000000" stroke="none">
<path d="M698 6980 c-173 -36 -313 -114 -444 -245 -126 -126 -205 -277 -238
-455 -15 -77 -16 -355 -14 -2825 l3 -2740 28 -88 c48 -155 108 -257 216 -371
111 -116 256 -201 408 -240 56 -15 326 -16 2875 -14 l2813 3 70 26 c271 101
453 283 554 554 l26 70 3 2813 c2 3100 7 2850 -58 3004 -41 96 -93 173 -174
257 -112 116 -229 187 -393 238 l-88 28 -2750 2 c-2634 2 -2754 1 -2837 -17z
m3783 -1600 c229 -43 390 -273 350 -499 -17 -94 -51 -162 -116 -230 -66 -70
-152 -115 -245 -130 -42 -7 -401 -11 -1030 -11 -1052 0 -1047 0 -1152 57 -126
68 -215 207 -225 350 -15 219 115 400 330 458 43 11 223 14 1043 14 625 1
1011 -3 1045 -9z m-231 -1457 c259 -41 515 -166 702 -342 328 -309 440 -741
298 -1157 -117 -345 -406 -615 -789 -738 -209 -67 -205 -67 -1196 -64 l-890 3
-68 32 c-168 80 -267 244 -254 423 12 173 116 317 277 383 l55 22 935 5 c922
5 936 5 980 26 68 31 106 68 139 136 25 49 31 74 31 125 0 35 -6 79 -14 98
-22 52 -89 118 -153 151 l-58 29 -1105 5 c-762 4 -1114 9 -1135 16 -133 49
-217 121 -272 232 -37 75 -38 78 -38 191 0 109 2 120 31 182 53 111 130 183
249 230 l60 24 985 5 c1068 6 1089 6 1230 -17z"/>
</g>
</svg>
