<svgn id="Layer_1" data-name="Layer 1" xmlns="http://www.w3.org/2000/svg" viewBox="0 0 653.23 70.73"><path class="cls-1" d="M78,64.31H53.52v9.91H64.27A22.3,22.3,0,0,1,60.78,83a14.8,14.8,0,0,1-6,5,18.18,18.18,0,0,1-8,1.51,19.39,19.39,0,0,1-10.75-3,17.46,17.46,0,0,1-6.43-8.07,31.92,31.92,0,0,1-2.15-12.26,32.68,32.68,0,0,1,2.15-12.35,17.41,17.41,0,0,1,6.43-8.16A18.48,18.48,0,0,1,46.82,43a16.07,16.07,0,0,1,10.69,3.61,19.88,19.88,0,0,1,6,9.5l13.11-1.89Q74.08,43.09,66.58,37T46,30.93a32,32,0,0,0-16.15,4.15,30,30,0,0,0-11.6,12.05Q13.91,55,13.91,66.29a41.89,41.89,0,0,0,2.57,15.24,31.86,31.86,0,0,0,7,11.08,29.73,29.73,0,0,0,10.25,6.76A32.92,32.92,0,0,0,46,101.66a32.79,32.79,0,0,0,17-4.27A29.16,29.16,0,0,0,74.17,85.58a36.69,36.69,0,0,0,4-17.3c0-.16,0-.76,0-1.8A21.56,21.56,0,0,0,78,64.31Z" transform="translate(-13.91 -30.93)"/><polygon class="cls-1" points="73.66 69.32 117.98 69.32 117.98 57.34 86.48 57.34 86.48 39.89 112.32 39.89 112.32 27.92 86.48 27.92 86.48 13.39 117.98 13.39 117.98 1.42 73.66 1.42 73.66 69.32"/><polygon class="cls-1" points="123.64 13.39 145.05 13.39 145.05 69.32 157.87 69.32 157.87 13.39 179.28 13.39 179.28 1.42 123.64 1.42 123.64 13.39"/><rect class="cls-1" x="203.8" y="1.42" width="12.83" height="67.9"/><polygon class="cls-1" points="273.3 46.68 243.78 1.42 230.77 1.42 230.77 69.32 243.78 69.32 243.78 24.05 273.3 69.32 286.32 69.32 286.32 1.42 273.3 1.42 273.3 46.68"/><polygon class="cls-1" points="312.72 13.39 334.13 13.39 334.13 69.32 346.96 69.32 346.96 13.39 368.36 13.39 368.36 1.42 312.72 1.42 312.72 13.39"/><path class="cls-1" d="M514.55,74.69a16.06,16.06,0,0,1-1.1,6,14,14,0,0,1-3.09,4.72,13.84,13.84,0,0,1-4.65,3.06,15,15,0,0,1-5.77,1.09,15.19,15.19,0,0,1-5.69-1.06,13.88,13.88,0,0,1-4.66-3,14.24,14.24,0,0,1-3.14-4.72,15.83,15.83,0,0,1-1.13-6.08V32.34l-13,.1V74.78A28,28,0,0,0,475.79,89a24.2,24.2,0,0,0,9.72,9.36,33,33,0,0,0,28.86,0A24.17,24.17,0,0,0,524.08,89a27.86,27.86,0,0,0,3.49-14.2V32.34h-13Z" transform="translate(-13.91 -30.93)"/><path class="cls-1" d="M559.14,45.88A19,19,0,0,1,569.91,43q7.08,0,11.56,3.42a18.42,18.42,0,0,1,6.36,9.6l12.92-3.59a30.76,30.76,0,0,0-11.2-15.7q-7.93-5.8-19.64-5.8a33.51,33.51,0,0,0-17.56,4.43A29.6,29.6,0,0,0,541,47.76a41,41,0,0,0-4,18.53,41,41,0,0,0,4,18.54,29.6,29.6,0,0,0,11.37,12.4,33.51,33.51,0,0,0,17.56,4.43q11.7,0,19.64-5.8a30.76,30.76,0,0,0,11.2-15.7l-12.92-3.59a18.56,18.56,0,0,1-6.36,9.58q-4.49,3.43-11.56,3.44a19,19,0,0,1-10.77-2.88,17.4,17.4,0,0,1-6.48-8.11,31.93,31.93,0,0,1-2.17-12.31A31.92,31.92,0,0,1,552.66,54,17.4,17.4,0,0,1,559.14,45.88Z" transform="translate(-13.91 -30.93)"/><polygon class="cls-1" points="640.41 1.42 640.41 29.33 610.04 29.33 610.04 1.42 597.21 1.42 597.21 69.32 610.04 69.32 610.04 41.31 640.41 41.31 640.41 69.32 653.23 69.32 653.23 1.42 640.41 1.42"/><circle class="cls-2" cx="413.09" cy="35.07" r="35"/></svg>