<svg id="Layer_1" data-name="Layer 1" xmlns="http://www.w3.org/2000/svg" viewBox="0 0 2120.5 1642"><defs><style>.cls-1{opacity:0.06;}.cls-2{fill:none;stroke:#fff;stroke-miterlimit:10;}</style></defs><title>lines_bg</title><g class="cls-1"><line class="cls-2" x1="0.5" x2="0.5" y2="1642"/><line class="cls-2" x1="0.5" x2="0.5" y2="1642"/><line class="cls-2" x1="0.5" x2="0.5" y2="1642"/><line class="cls-2" x1="0.5" x2="0.5" y2="1642"/><line class="cls-2" x1="0.5" x2="0.5" y2="1642"/><line class="cls-2" x1="0.5" x2="0.5" y2="1642"/><line class="cls-2" x1="0.5" x2="0.5" y2="1642"/><line class="cls-2" x1="0.5" x2="0.5" y2="1642"/><line class="cls-2" x1="0.5" x2="0.5" y2="1642"/><line class="cls-2" x1="0.5" x2="0.5" y2="1642"/><line class="cls-2" x1="0.5" x2="0.5" y2="1642"/><line class="cls-2" x1="0.5" x2="0.5" y2="1642"/><line class="cls-2" x1="0.5" x2="0.5" y2="1642"/></g><g class="cls-1"><line class="cls-2" x1="236" x2="236" y2="1642"/><line class="cls-2" x1="236" x2="236" y2="1642"/><line class="cls-2" x1="236" x2="236" y2="1642"/><line class="cls-2" x1="236" x2="236" y2="1642"/><line class="cls-2" x1="236" x2="236" y2="1642"/><line class="cls-2" x1="236" x2="236" y2="1642"/><line class="cls-2" x1="236" x2="236" y2="1642"/><line class="cls-2" x1="236" x2="236" y2="1642"/><line class="cls-2" x1="236" x2="236" y2="1642"/><line class="cls-2" x1="236" x2="236" y2="1642"/><line class="cls-2" x1="236" x2="236" y2="1642"/><line class="cls-2" x1="236" x2="236" y2="1642"/><line class="cls-2" x1="236" x2="236" y2="1642"/></g><g class="cls-1"><line class="cls-2" x1="471.5" x2="471.5" y2="1642"/><line class="cls-2" x1="471.5" x2="471.5" y2="1642"/><line class="cls-2" x1="471.5" x2="471.5" y2="1642"/><line class="cls-2" x1="471.5" x2="471.5" y2="1642"/><line class="cls-2" x1="471.5" x2="471.5" y2="1642"/><line class="cls-2" x1="471.5" x2="471.5" y2="1642"/><line class="cls-2" x1="471.5" x2="471.5" y2="1642"/><line class="cls-2" x1="471.5" x2="471.5" y2="1642"/><line class="cls-2" x1="471.5" x2="471.5" y2="1642"/><line class="cls-2" x1="471.5" x2="471.5" y2="1642"/><line class="cls-2" x1="471.5" x2="471.5" y2="1642"/><line class="cls-2" x1="471.5" x2="471.5" y2="1642"/><line class="cls-2" x1="471.5" x2="471.5" y2="1642"/></g><g class="cls-1"><line class="cls-2" x1="707" x2="707" y2="1642"/><line class="cls-2" x1="707" x2="707" y2="1642"/><line class="cls-2" x1="707" x2="707" y2="1642"/><line class="cls-2" x1="707" x2="707" y2="1642"/><line class="cls-2" x1="707" x2="707" y2="1642"/><line class="cls-2" x1="707" x2="707" y2="1642"/><line class="cls-2" x1="707" x2="707" y2="1642"/><line class="cls-2" x1="707" x2="707" y2="1642"/><line class="cls-2" x1="707" x2="707" y2="1642"/><line class="cls-2" x1="707" x2="707" y2="1642"/><line class="cls-2" x1="707" x2="707" y2="1642"/><line class="cls-2" x1="707" x2="707" y2="1642"/><line class="cls-2" x1="707" x2="707" y2="1642"/></g><g class="cls-1"><line class="cls-2" x1="942.5" x2="942.5" y2="1642"/><line class="cls-2" x1="942.5" x2="942.5" y2="1642"/><line class="cls-2" x1="942.5" x2="942.5" y2="1642"/><line class="cls-2" x1="942.5" x2="942.5" y2="1642"/><line class="cls-2" x1="942.5" x2="942.5" y2="1642"/><line class="cls-2" x1="942.5" x2="942.5" y2="1642"/><line class="cls-2" x1="942.5" x2="942.5" y2="1642"/><line class="cls-2" x1="942.5" x2="942.5" y2="1642"/><line class="cls-2" x1="942.5" x2="942.5" y2="1642"/><line class="cls-2" x1="942.5" x2="942.5" y2="1642"/><line class="cls-2" x1="942.5" x2="942.5" y2="1642"/><line class="cls-2" x1="942.5" x2="942.5" y2="1642"/><line class="cls-2" x1="942.5" x2="942.5" y2="1642"/></g><g class="cls-1"><line class="cls-2" x1="1178" x2="1178" y2="1642"/><line class="cls-2" x1="1178" x2="1178" y2="1642"/><line class="cls-2" x1="1178" x2="1178" y2="1642"/><line class="cls-2" x1="1178" x2="1178" y2="1642"/><line class="cls-2" x1="1178" x2="1178" y2="1642"/><line class="cls-2" x1="1178" x2="1178" y2="1642"/><line class="cls-2" x1="1178" x2="1178" y2="1642"/><line class="cls-2" x1="1178" x2="1178" y2="1642"/><line class="cls-2" x1="1178" x2="1178" y2="1642"/><line class="cls-2" x1="1178" x2="1178" y2="1642"/><line class="cls-2" x1="1178" x2="1178" y2="1642"/><line class="cls-2" x1="1178" x2="1178" y2="1642"/><line class="cls-2" x1="1178" x2="1178" y2="1642"/></g><g class="cls-1"><line class="cls-2" x1="1413.5" x2="1413.5" y2="1642"/><line class="cls-2" x1="1413.5" x2="1413.5" y2="1642"/><line class="cls-2" x1="1413.5" x2="1413.5" y2="1642"/><line class="cls-2" x1="1413.5" x2="1413.5" y2="1642"/><line class="cls-2" x1="1413.5" x2="1413.5" y2="1642"/><line class="cls-2" x1="1413.5" x2="1413.5" y2="1642"/><line class="cls-2" x1="1413.5" x2="1413.5" y2="1642"/><line class="cls-2" x1="1413.5" x2="1413.5" y2="1642"/><line class="cls-2" x1="1413.5" x2="1413.5" y2="1642"/><line class="cls-2" x1="1413.5" x2="1413.5" y2="1642"/><line class="cls-2" x1="1413.5" x2="1413.5" y2="1642"/><line class="cls-2" x1="1413.5" x2="1413.5" y2="1642"/><line class="cls-2" x1="1413.5" x2="1413.5" y2="1642"/></g><g class="cls-1"><line class="cls-2" x1="1649" x2="1649" y2="1642"/><line class="cls-2" x1="1649" x2="1649" y2="1642"/><line class="cls-2" x1="1649" x2="1649" y2="1642"/><line class="cls-2" x1="1649" x2="1649" y2="1642"/><line class="cls-2" x1="1649" x2="1649" y2="1642"/><line class="cls-2" x1="1649" x2="1649" y2="1642"/><line class="cls-2" x1="1649" x2="1649" y2="1642"/><line class="cls-2" x1="1649" x2="1649" y2="1642"/><line class="cls-2" x1="1649" x2="1649" y2="1642"/><line class="cls-2" x1="1649" x2="1649" y2="1642"/><line class="cls-2" x1="1649" x2="1649" y2="1642"/><line class="cls-2" x1="1649" x2="1649" y2="1642"/><line class="cls-2" x1="1649" x2="1649" y2="1642"/></g><g class="cls-1"><line class="cls-2" x1="1884.5" x2="1884.5" y2="1642"/><line class="cls-2" x1="1884.5" x2="1884.5" y2="1642"/><line class="cls-2" x1="1884.5" x2="1884.5" y2="1642"/><line class="cls-2" x1="1884.5" x2="1884.5" y2="1642"/><line class="cls-2" x1="1884.5" x2="1884.5" y2="1642"/><line class="cls-2" x1="1884.5" x2="1884.5" y2="1642"/><line class="cls-2" x1="1884.5" x2="1884.5" y2="1642"/><line class="cls-2" x1="1884.5" x2="1884.5" y2="1642"/><line class="cls-2" x1="1884.5" x2="1884.5" y2="1642"/><line class="cls-2" x1="1884.5" x2="1884.5" y2="1642"/><line class="cls-2" x1="1884.5" x2="1884.5" y2="1642"/><line class="cls-2" x1="1884.5" x2="1884.5" y2="1642"/><line class="cls-2" x1="1884.5" x2="1884.5" y2="1642"/></g><g class="cls-1"><line class="cls-2" x1="2120" x2="2120" y2="1642"/><line class="cls-2" x1="2120" x2="2120" y2="1642"/><line class="cls-2" x1="2120" x2="2120" y2="1642"/><line class="cls-2" x1="2120" x2="2120" y2="1642"/><line class="cls-2" x1="2120" x2="2120" y2="1642"/><line class="cls-2" x1="2120" x2="2120" y2="1642"/><line class="cls-2" x1="2120" x2="2120" y2="1642"/><line class="cls-2" x1="2120" x2="2120" y2="1642"/><line class="cls-2" x1="2120" x2="2120" y2="1642"/><line class="cls-2" x1="2120" x2="2120" y2="1642"/><line class="cls-2" x1="2120" x2="2120" y2="1642"/><line class="cls-2" x1="2120" x2="2120" y2="1642"/><line class="cls-2" x1="2120" x2="2120" y2="1642"/></g></svg>