<svg id="Layer_1" fill="black" data-name="Layer 1" xmlns="http://www.w3.org/2000/svg" viewBox="0 0 33.18 76.04"><defs><style>.cls-1{fill:#000;}</style></defs><title>o-spider</title><path d="M100,0" transform="translate(-33.41 1.55)"/><path class="cls-1" d="M66.54,60.59c-.36-.56-4.84-6.9-5.57-7.2-.47-.18-3.82-1-6.26-1.5,2.38-.89,6.11-2.48,6.59-2.78.68-.44,4.38-8.35,4.68-9s-2.38-7.53-2.67-7.61,1.43,7.44,1.43,7.44l-4.35,8.43-6.1,2a.75.75,0,0,1,0-.16c1.79-1.85,5.51-6.27,5.87-6.89.46-.78.07-10.59,0-11.44s-6.28-6.34-6.61-6.27,5.29,6.73,5.29,6.73V42.9l-5.58,5.52a4.57,4.57,0,0,0-.86-.66l0,0s-.22-3-1.21-3c-.5,0-.79.61-.94,1.2V-1.55h-.5V45.57c-.17-.43-.42-.78-.81-.78-1,0-1.2,3-1.2,3l0,0a4.69,4.69,0,0,0-.92.73L41.21,42.9V32.24s5.62-6.67,5.29-6.73S40,30.93,39.89,31.78s-.46,10.66,0,11.44,4.23,5.21,6,7l0,.09-6.23-2-4.35-8.43s1.71-7.52,1.43-7.44-3,6.91-2.67,7.61,4,8.61,4.68,9c.48.3,4.21,1.89,6.59,2.78-2.44.51-5.79,1.32-6.26,1.5-.73.3-5.21,6.64-5.57,7.2s1.58,6.72,1.86,6.83-.66-6.54-.66-6.54l5.2-6.71L46,53.23l.09.15a81.9,81.9,0,0,0-6.51,5.19c-.54.62-1.15,9.05-1.18,9.79s5.59,6.15,5.93,6.13-4.57-6.37-4.57-6.37L40.88,59l3.22-2.14a6.24,6.24,0,0,0-.56,2.59,6.53,6.53,0,0,0,13.05,0A6.32,6.32,0,0,0,56.1,57l3,2,1.09,9.12s-4.9,6.36-4.57,6.37,6-5.4,5.93-6.13-.64-9.17-1.18-9.79S56,54.88,54,53.45a2,2,0,0,0,.11-.2l6,.92,5.2,6.71s-.94,6.64-.66,6.54S66.91,61.16,66.54,60.59Z" transform="translate(-33.41 1.55)"/></svg>