<svg id="Layer_1" data-name="Layer 1" xmlns="http://www.w3.org/2000/svg" viewBox="0 0 2152.9 1412.4"><defs><style>.cls-1{fill:#606060;}.cls-2{fill:#878787;}</style></defs><title>spider</title><path class="cls-1" d="M1070.09,938.88c-98.34-106.4-144.85-190.15-150.82-271.57-6.07-82.66,28.85-169.72,113.23-282.26l.62-.83h-1c-141.66-1.81-232.86-27.07-295.69-81.93-61.87-54-101.07-141.36-127.1-283.19l-.17-.93-.71.64C500.81,116,416.11,162,333.79,168c-83.6,6-171.63-28.54-285.43-112l-.83-.61,0,1C46.13,162.3,31.18,239.67,0,298v2.22C31.79,241.72,47.08,164,48.56,57.43,162.18,140.58,250.2,175,333.87,169c42.89-3.07,85.91-16.83,131.52-42.06,43.07-23.82,89.86-58.74,143-106.71,12.9,70,28.74,125.83,48.41,170.59,20.83,47.39,46.63,84.11,78.87,112.26,62.88,54.9,154,80.26,295.34,82.18C946.94,497.61,912.14,584.66,918.21,667.39c3.11,42.42,17,85,42.53,130.07,24.09,42.59,59.4,88.86,107.91,141.43-70.8,12.76-127.24,28.42-172.5,47.87-47.93,20.6-85.06,46.12-113.52,78-55.52,62.18-81.16,152.28-83.1,292.06-113.62-83.16-201.68-117.59-285.31-111.57-42.89,3.08-85.92,16.83-131.52,42.06-43.07,23.83-89.87,58.74-143,106.72-12.89-70-28.73-125.83-48.4-170.59-20.83-47.4-46.63-84.12-78.87-112.27q-6-5.25-12.4-10.15v1.34q6,4.64,11.7,9.6c61.87,54,101.07,141.36,127.1,283.19l.17.94.71-.65C247.28,1298.2,332,1252.2,414.3,1246.3c83.59-6,171.63,28.54,285.43,112l.84.62v-1c1.82-140.09,27.37-230.27,82.84-292.41,54.63-61.19,143-100,286.37-125.69l.94-.17Z"/><path class="cls-1" d="M983.13,909.87c-86-93.09-126.72-166.37-132-237.59-5.3-72.31,25.25-148.47,99.07-246.93l.61-.83h-1c-123.93-1.58-203.71-23.68-258.68-71.67C637,305.58,602.72,229.17,580,105.09l-.17-.94-.71.64c-94.14,85.08-168.23,125.32-240.25,130.49-73.14,5.25-150.14-25-249.71-98l-.84-.61v1c-1.6,122.56-24,201.45-72.47,255.81Q8.38,401.84,0,409.49v1.45a229.15,229.15,0,0,0,16.59-16.7C65.15,339.83,87.6,261,89.31,138.77c99.38,72.71,176.4,102.81,249.58,97.56,37.55-2.7,75.2-14.74,115.12-36.82,37.66-20.83,78.58-51.36,125.06-93.3,11.29,61.22,25.14,110,42.34,149.16,18.23,41.48,40.81,73.62,69,98.26,55,48,134.72,70.22,258.33,71.92-73.53,98.27-104,174.43-98.65,246.81,2.72,37.13,14.9,74.36,37.23,113.84,21.07,37.25,51.93,77.71,94.35,123.68C919.79,921,870.44,934.73,830.86,951.75c-41.94,18-74.44,40.35-99.36,68.26-48.56,54.4-71,133.22-72.72,255.47-99.38-72.72-176.4-102.81-249.59-97.56-37.54,2.69-75.19,14.73-115.11,36.81-37.67,20.84-78.58,51.36-125.07,93.3-11.28-61.22-25.13-110-42.33-149.16-18.23-41.48-40.81-73.62-69-98.25A235.1,235.1,0,0,0,0,1023.81V1025a234,234,0,0,1,56.94,36.43c54.13,47.26,88.43,123.67,111.2,247.76l.17.93.71-.64c94.14-85.07,168.23-125.32,240.25-130.48,73.15-5.25,150.14,25,249.71,98l.84.62v-1c1.59-122.56,23.95-201.46,72.47-255.82,47.79-53.53,125.06-87.44,250.53-110l.95-.17Z"/><path class="cls-1" d="M896.17,880.86c-73.73-79.78-108.6-142.58-113.08-203.6-4.54-62,21.64-127.23,84.9-211.62l.62-.82-1,0C761.36,463.45,693,444.51,645.89,403.39c-46.38-40.49-75.77-106-95.28-212.31l-.17-.94-.71.64c-80.68,72.91-144.17,107.4-205.89,111.83-62.63,4.49-128.65-21.4-214-84L129,218v1c-1.37,105-20.52,172.64-62.1,219.22C49.56,457.72,27.65,474.13,0,488.07v1.18C28,475.2,50.16,458.63,67.71,439c41.62-46.62,60.87-114.15,62.35-218.87,85.15,62.28,151.12,88,213.86,83.55,61.79-4.43,125.29-38.82,205.81-111.46,19.56,106,49,171.44,95.46,212,47.15,41.17,115.43,60.2,221.33,61.66-63,84.2-89,149.46-84.49,211.49,4.49,61.1,39.25,123.9,112.71,203.53-107.23,19.35-173.36,48.48-214.36,94.4-41.63,46.63-60.87,114.15-62.35,218.88-85.15-62.29-151.16-88.05-213.86-83.55C342.38,1115,278.88,1149.4,198.36,1222c-19.57-106-49-171.43-95.46-212C76.31,986.85,43,970.67,0,960.72v1.08c42.7,9.92,75.79,26,102.19,49.05,46.39,40.5,75.78,106,95.29,212.32l.17.93.71-.64c80.68-72.91,144.17-107.4,205.89-111.82,62.64-4.51,128.65,21.39,214,83.95l.84.61v-1c1.36-105,20.52-172.65,62.1-219.22,41-45.87,107.16-74.93,214.7-94.23l.94-.17Z"/><path class="cls-1" d="M34.14,731.94C32,702,21,671.62,0,638.17v2C20.34,672.9,30.93,702.71,33.08,732,35.79,768.92,25.4,807.24,0,851.77v2.12C26.18,808.48,36.9,769.5,34.14,731.94Z"/><path class="cls-1" d="M809.22,851.84C747.79,785.37,718.74,733.06,715,682.23c-3.79-51.62,18-106,70.73-176.29l.62-.82-1,0C696.83,504,639.88,488.2,600.64,454c-38.63-33.73-63.12-88.28-79.37-176.88l-.18-.94-.71.65c-67.21,60.74-120.1,89.47-171.51,93.16C296.65,373.68,241.7,352.11,170.61,300l-.84-.61v1C168.62,387.91,152.67,444.24,118,483,92.43,511.71,55,532.5,0,547.89V549c55.33-15.45,93.05-36.36,118.83-65.24,34.68-38.85,50.72-95.09,52-182.28,65.67,48,117.67,70,166.51,69.95q5.83,0,11.63-.41c51.47-3.69,104.38-32.33,171.44-92.8C536.7,366.48,561.25,421,599.94,454.74c39.28,34.29,96.16,50.16,184.33,51.4C731.85,576.26,710.15,630.62,714,682.3c3.73,50.91,32.68,103.23,93.83,169.55C718.5,868,663.42,892.25,629.26,930.51c-34.68,38.85-50.73,95.09-52,182.29-70.91-51.84-125.86-73.3-178.14-69.54-51.48,3.69-104.38,32.32-171.44,92.79-16.31-88.29-40.86-142.77-79.55-176.54C114.53,930.15,68,914.31,0,909.57v1c67.7,4.73,114,20.49,147.44,49.67,38.64,33.74,63.12,88.29,79.38,176.88l.17.94.71-.64c67.21-60.75,120.11-89.48,171.52-93.17,52.22-3.75,107.17,17.83,178.26,70l.84.61v-1c1.14-87.5,17.09-143.82,51.72-182.62,34.12-38.21,89.28-62.42,178.87-78.5l1-.17Z"/><path class="cls-1" d="M256.33,1052.12l-.17-.94c-13-70.85-32.57-114.47-63.47-141.44-31.36-27.38-76.9-40-147.67-40.9H44l.62-.83c42.15-56.22,59.6-99.69,56.57-141-3-40.65-26.22-82.48-75.34-135.63l-.65-.7.95-.17c71.64-12.86,115.75-32.22,143-62.77,27.69-31,40.44-76,41.35-146v-1l.84.62c56.85,41.67,100.8,58.93,142.54,55.93,41.1-2.95,83.39-25.92,137.15-74.5l.71-.65.17.94c13,70.85,32.58,114.48,63.47,141.44,31.36,27.39,76.9,40,147.66,40.9l1,0-.61.82c-42.15,56.22-59.6,99.69-56.57,141,3,40.64,26.22,82.47,75.34,135.63l.65.7-.95.17c-71.64,12.86-115.76,32.21-143,62.76-27.69,31-40.44,76.06-41.35,146l0,1-.83-.61C479.88,991.23,435.9,974,394.19,977c-41.1,2.95-83.4,25.93-137.15,74.51ZM46.08,867.8c70.44,1,115.9,13.72,147.32,41.15C224.34,936,244,979.51,257,1050.06c53.61-48.31,95.91-71.18,137.08-74.14,41.79-3,85.76,14.14,142.42,55.53,1-69.66,13.87-114.62,41.61-145.68,27.32-30.61,71.35-50,142.69-62.94-48.85-53-72-94.84-75-135.56-3-41.33,14.29-84.79,56.15-140.83-70.44-1-115.9-13.72-147.32-41.15-30.94-27-50.59-70.56-63.64-141.11-53.6,48.31-95.9,71.19-137.07,74.14-41.8,3-85.75-14.13-142.42-55.53-1,69.66-13.87,114.62-41.61,145.69-27.32,30.6-71.35,50-142.69,62.93,48.85,53,72,94.84,75,135.56C105.26,768.3,87.94,811.77,46.08,867.8Z"/><path class="cls-1" d="M285.67,966.13l-.17-.94c-9.74-53.11-24.41-85.8-47.56-106-23.49-20.51-57.63-30-110.66-30.64h-1l.62-.83c31.59-42.13,44.66-74.71,42.4-105.63-2.24-30.45-19.66-61.79-56.48-101.64l-.64-.7.94-.17c53.71-9.64,86.77-24.14,107.2-47,20.74-23.24,30.3-57,31-109.44v-1l.84.62c42.61,31.24,75.57,44.16,106.81,41.92,30.8-2.21,62.5-19.43,102.79-55.84l.71-.64.17.93c9.74,53.11,24.41,85.8,47.56,106,23.49,20.52,57.62,30,110.66,30.64h1l-.62.83c-31.59,42.14-44.66,74.71-42.4,105.63,2.24,30.45,19.65,61.8,56.47,101.64l.65.7-.94.17c-53.71,9.64-86.77,24.15-107.2,47-20.74,23.24-30.3,57-31,109.44l0,1-.83-.61c-42.61-31.24-75.58-44.17-106.82-41.93-30.79,2.21-62.49,19.43-102.78,55.85ZM128.33,827.51c52.72.78,86.77,10.32,110.32,30.88,23.2,20.26,37.93,52.87,47.72,105.68,40.15-36.14,71.85-53.26,102.72-55.48,31.32-2.25,64.26,10.56,106.69,41.52C496.58,898,506.22,864.3,527,841c20.48-22.94,53.46-37.52,106.86-47.2-36.55-39.7-53.86-71.05-56.1-101.57-2.27-31,10.68-63.56,42-105.51C567,586,533,576.41,509.44,555.85c-23.2-20.25-37.93-52.87-47.73-105.68-40.14,36.15-71.84,53.27-102.71,55.48-31.33,2.25-64.26-10.56-106.69-41.52-.8,52.14-10.44,85.81-31.23,109.1-20.49,22.94-53.47,37.51-106.86,47.2,36.54,39.69,53.86,71,56.09,101.57C172.59,753,159.64,785.55,128.33,827.51Z"/><path class="cls-1" d="M315,880.14l-.17-.94c-6.49-35.36-16.25-57.13-31.65-70.57-15.63-13.65-38.35-19.94-73.66-20.39h-1l.62-.83c21-28,29.74-49.73,28.23-70.3-1.48-20.26-13.08-41.12-37.6-67.65l-.65-.7.95-.18c35.76-6.41,57.77-16.06,71.36-31.29,13.8-15.46,20.16-37.93,20.61-72.85v-1l.84.61c28.37,20.8,50.3,29.41,71.09,27.91,20.49-1.46,41.59-12.93,68.42-37.18l.71-.64.17.94c6.49,35.36,16.25,57.12,31.65,70.57,15.63,13.64,38.34,19.93,73.66,20.38h1l-.62.83c-21,28-29.74,49.74-28.23,70.3,1.48,20.26,13.08,41.12,37.6,67.66l.65.7-1,.17c-35.76,6.42-57.77,16.07-71.36,31.3-13.8,15.45-20.16,37.92-20.61,72.84v1l-.84-.61c-28.37-20.8-50.3-29.4-71.09-27.92-20.49,1.47-41.59,12.94-68.42,37.18ZM210.58,787.21c35,.56,57.64,6.94,73.32,20.63,15.45,13.49,25.28,35.18,31.82,70.24,26.68-24,47.78-35.35,68.34-36.82,20.83-1.49,42.78,7,71,27.51.57-34.6,7-57,20.86-72.5,13.64-15.28,35.57-25,71-31.47-24.25-26.38-35.74-47.25-37.23-67.58-1.52-20.63,7.07-42.31,27.82-70.18-35-.57-57.64-6.94-73.32-20.64-15.45-13.49-25.28-35.17-31.82-70.23-26.67,24-47.78,35.34-68.34,36.81-20.85,1.51-42.79-7-71-27.51-.57,34.61-7,57-20.86,72.5-13.64,15.29-35.57,25-71,31.47,24.25,26.38,35.74,47.26,37.23,67.59C239.92,737.66,231.33,759.34,210.58,787.21Z"/><path class="cls-1" d="M344.35,794.14l-.17-.93c-6.29-34.26-18.53-44.83-52.4-45.26l-1,0,.62-.82c20.18-26.91,19.09-43-4.66-68.65l-.65-.7.94-.17c34.64-6.22,45.34-18.32,45.77-51.82l0-1,.83.61c27.21,19.95,43.43,18.87,69.41-4.62l.71-.64.18.94c6.28,34.25,18.52,44.83,52.39,45.26h1l-.61.83c-20.18,26.9-19.09,42.94,4.66,68.64l.65.7-.94.17c-34.64,6.22-45.34,18.33-45.77,51.82l0,1-.83-.62c-27.21-19.94-43.43-18.86-69.42,4.62Zm-51.52-47.23c33.05.64,45.9,11.77,52.22,45.18,25.5-22.79,42.54-24,69.23-4.66.65-32.67,11.9-45.38,45.68-51.64-23-25.22-24.21-42.07-4.7-68.46-33.05-.64-45.9-11.77-52.23-45.18-25.5,22.79-42.53,24-69.22,4.66-.65,32.68-11.9,45.39-45.68,51.64C311.17,703.67,312.34,720.52,292.83,746.91Z"/><polygon class="cls-1" points="614.75 0 132.84 1412.4 133.97 1412.4 615.88 0 614.75 0"/><polygon class="cls-1" points="1818.73 0 0 888.25 0 889.43 1821.13 0 1818.73 0"/><polygon class="cls-1" points="15.39 0 722.97 1412.4 724.16 1412.4 16.57 0 15.39 0"/><polygon class="cls-1" points="2152.9 1302.31 272.22 674.78 2152.9 1305.24 2152.9 1302.31"/><polygon class="cls-1" points="0 583.95 272.22 674.78 0 583.53 0 583.95"/><ellipse class="cls-2" cx="222.18" cy="1149.16" rx="24.31" ry="24.58" transform="translate(-943.36 1042.24) rotate(-73.82)"/><path class="cls-2" d="M246.52,1124.93a16.62,16.62,0,1,1-11.38-20.41A16.53,16.53,0,0,1,246.52,1124.93Z"/><path class="cls-2" d="M226,1104.45s3.91-10.57,7.5-9.53,1.62,9.6,1.62,9.6Z"/><path class="cls-2" d="M242.87,1109.35s2.37-11-1.22-12.07-6.51,7.24-6.51,7.24Z"/><path class="cls-2" d="M223.38,1108.4l-15.86-28.46,11.19-38.55s27.33-18.23,26.21-18.81-29.38,12.76-30.51,15.76-12.87,38.07-12,41.4,14.87,34.57,16.54,35.06S223.38,1108.4,223.38,1108.4Z"/><path class="cls-2" d="M220.18,1114.13l-24.13-16.23-6.92-35.08s14.12-25.42,13-25.44-18,21.9-17.63,24.74,5.39,35.37,7.42,37.67,25.84,21.49,27.36,21.2S220.18,1114.13,220.18,1114.13Z"/><path class="cls-2" d="M218.49,1128.7l-29.06,9.17-13.52,31.84s11,28.15,9.81,27.86-15.83-25.79-15-28.43,11.92-32.51,14.52-34.18,31.82-13.76,33.42-13.08S218.49,1128.7,218.49,1128.7Z"/><path class="cls-2" d="M219.28,1123.06l-28.5-3.74L165,1138.14s-3.58,25-4.48,24.33-1.5-25,.41-26.63,24.8-19.91,27.73-20.21,32.91,1.32,33.95,2.41S219.28,1123.06,219.28,1123.06Z"/><path class="cls-2" d="M242.5,1113.94l28.63-15.54,11.19-38.55s-13.33-30-12.07-29.92,18,26.51,17.33,29.65-9.51,39-12,41.39-31.06,21.25-32.74,20.76S242.5,1113.94,242.5,1113.94Z"/><path class="cls-2" d="M242.13,1120.5l29.07-.79,24.63-25.93s1.68-29,2.64-28.43,3.45,28.11,1.64,30.33-23.49,27-26.43,27.84-33.33,4.31-34.46,3.26S242.13,1120.5,242.13,1120.5Z"/><path class="cls-2" d="M235.76,1133.72,255.39,1157l-5.62,34.14s-24.4,17.86-23.2,18.27,27.17-13.31,27.87-16,7.34-33.84,6-36.64-19.51-28.66-21.23-28.94S235.76,1133.72,235.76,1133.72Z"/><path class="cls-2" d="M238.11,1128.52l26.07,12.11,11.75,29.72s-10.36,23-9.25,23,14.65-20.3,13.92-22.72-10.29-30.09-12.61-31.91-28.5-16.51-30-16.14S238.11,1128.52,238.11,1128.52Z"/></svg>