<svg id="canvas" height="auto" xmlns="http://www.w3.org/2000/svg" version="1.1" xmlns:xlink="http://www.w3.org/1999/xlink" xmlns:svgjs="http://svgjs.dev/svgjs" viewBox="0 0 900 512" width="auto" style="width: auto; height: auto;"><defs><linearGradient gradientTransform="matrix(6.123233995736766e-17,1,-1,6.123233995736766e-17,0,0)"><stop stop-color="#ebebeb" offset="0"/><stop stop-color="hsv(0, 0%, 92%)" offset="1"/></linearGradient><linearGradient gradientTransform="matrix(6.123233995736766e-17,1,-1,6.123233995736766e-17,0,0)"><stop stop-color="#ababab" offset="0"/><stop stop-color="hsv(0, 0%, 67%)" offset="1"/></linearGradient><linearGradient gradientTransform="matrix(6.123233995736766e-17,1,-1,6.123233995736766e-17,0,0)"><stop stop-color="#8a8a8a" offset="0"/><stop stop-color="hsv(0, 0%, 54%)" offset="1"/></linearGradient><linearGradient gradientTransform="matrix(6.123233995736766e-17,1,-1,6.123233995736766e-17,0,0)" id="SvgjsLinearGradient1322"><stop stop-color="#2b2b2b" offset="0"/><stop stop-color="hsv(0, 0%, 17%)" offset="1"/></linearGradient><linearGradient gradientTransform="matrix(6.123233995736766e-17,1,-1,6.123233995736766e-17,0,0)" id="SvgjsLinearGradient1321"><stop stop-color="#4a4a4a" offset="0"/><stop stop-color="hsv(0, 0%, 29%)" offset="1"/></linearGradient><linearGradient gradientTransform="matrix(6.123233995736766e-17,1,-1,6.123233995736766e-17,0,0)"><stop stop-color="#6b6b6b" offset="0"/><stop stop-color="hsv(0, 0%, 42%)" offset="1"/></linearGradient><linearGradient gradientTransform="matrix(6.123233995736766e-17,1,-1,6.123233995736766e-17,0,0)"><stop stop-color="#c9c9c9" offset="0"/><stop stop-color="hsv(0, 0%, 79%)" offset="1"/></linearGradient></defs><rect width="900" height="512" fill="#161616ff"/><path d="M478.8725749649377 269.84391714648916C421.8575941834124 314.06037798436705 293.36296683609044 305.55756142891096 212.74820484444018 297.46420004706215C132.13344285278995 289.37083866521334 44.63869070855799 272.8594764771352 -4.815996984963647 221.28374885539608C-54.27068467848529 169.70802123365695 -83.2130432630096 61.2981129801089 -83.97992131668968 -11.990165683372481C-84.74679937036977 -85.27844434685386 -63.61107046800575 -173.16206416183815 -9.417265307044147 -218.44592312549207C44.776539853917456 -263.729782089146 159.8044514200922 -285.84825288834963 241.18290964907993 -283.69331946529604C322.5613678780677 -281.53838604224245 426.577620752797 -258.1594483346855 478.8534840668823 -205.5163225871704C531.1293473809676 -152.87319683965526 554.8349077172494 -47.06127160248184 554.838089533592 32.16543501979476C554.8412713499346 111.39214164207135 535.887555746463 225.62745630861127 478.8725749649377 269.84391714648916C421.8575941834124 314.06037798436705 293.36296683609044 305.55756142891096 212.74820484444018 297.46420004706215 " fill="none" stroke-width="4" stroke="url(#SvgjsLinearGradient1321)" opacity="0.5"/><path d="M896.3827555477868 193.1237516723636C850.2713889439348 239.42305725064796 751.1017178947751 257.60245002394504 679.6094875372439 256.8369243779621C608.1172571797126 256.0713987319791 512.6975395228086 234.94749467004908 467.42937340259925 188.53059779646583C422.1612072823899 142.11370092288251 407.9035890728107 48.9653461048332 408.000490815988 -21.664456863537737C408.09739255916526 -92.29425983190865 416.4897375410799 -188.09732610634904 468.01078386166296 -235.24822001375964C519.5318301822459 -282.3991139211702 635.8226315791101 -306.3043447735663 717.1267687394861 -304.5698203080012C798.4309058998622 -302.83529584243615 915.9771204204405 -272.10955842307874 955.8356068239189 -224.84107322036928C995.6940932273972 -177.5725880176598 966.1864957063782 -90.61971324053314 956.2776871603562 -20.958909091744317C946.3688786143342 48.70189505704451 942.4941221516389 146.82444609407918 896.3827555477868 193.1237516723636C850.2713889439348 239.42305725064796 751.1017178947751 257.60245002394504 679.6094875372439 256.8369243779621 " fill="url(#SvgjsLinearGradient1321)" stroke="none" opacity="0.5"/><path d="M366.6341307686804 621.8909216797892C326.1051854900973 646.6230205983841 270.9337317198093 654.9234025315172 221.8213311480377 655.9702021844116C172.70893057626606 657.0170018373062 111.69522443209763 645.9662238481819 71.95972733805056 628.171719597156C32.22423024400348 610.37721534613 8.385282552086395 587.9261280257456 -16.591651416244815 549.2031766782559C-41.568585384576025 510.4802253307663 -75.94580447803301 450.9429255205185 -77.9018764719367 395.83401151221824C-79.8579484658404 340.725097503918 -52.19490124783067 266.6468332943947 -28.328083379666936 218.5496926284545C-4.4612655115032 170.45255196251432 23.06513315507567 128.80239816144498 65.29903073704574 107.25116751657714C107.53292831901581 85.6999368717093 173.19782533429463 88.87219580570034 225.07530211215345 89.24230875924741C276.95277889001227 89.61242171279447 331.57226839428233 83.97305034374777 376.56389140419867 109.47184523785955C421.555514414115 134.97064013197132 464.233287742019 195.73226211331274 495.02504017165165 242.2350781239181C525.8167926012843 288.73789413452346 566.3194122073472 344.26498621000434 561.3144059819947 388.4887413014917C556.3093997566422 432.71249639297906 497.4417153550886 468.6772452764595 464.99500281953624 507.5776086728424C432.5482902839839 546.4779720692254 407.1630760472635 597.1588227611944 366.6341307686804 621.8909216797892C326.1051854900973 646.6230205983841 270.9337317198093 654.9234025315172 221.8213311480377 655.9702021844116 " fill="url(#SvgjsLinearGradient1322)" stroke="none" opacity="0.5"/></svg>